<?xml version="1.0" encoding="UTF-8"?>
<svg id="Layer_1" data-name="Layer 1" xmlns="http://www.w3.org/2000/svg" version="1.1" xmlns:xlink="http://www.w3.org/1999/xlink" viewBox="0 0 48 48">
  <defs>
    <style>
      .cls-1 {
        fill: none;
      }

      .cls-1, .cls-2 {
        stroke-width: 0px;
      }

      .cls-3 {
        clip-path: url(#clippath);
      }

      .cls-2 {
        fill: #333;
      }
    </style>
    <clipPath id="clippath">
      <rect class="cls-1" width="48" height="48"/>
    </clipPath>
  </defs>
  <g class="cls-3">
    <path class="cls-2" d="M24,0C10.8,0,0,10.8,0,24s10.8,24,24,24,24-10.8,24-24S37.2,0,24,0ZM37.5,36c0,.8-.7,1.5-1.5,1.5-14.1,0-25.5-11.4-25.5-25.5s.7-1.5,1.5-1.5h5.5c.8,0,1.5.7,1.5,1.5,0,2.6.6,5.1,1.7,7.3.2.4.2.8,0,1.1-.1.4-.4.7-.8.9l-2.2,1.1c1.9,3.2,4.5,5.9,7.8,7.8l1.1-2.2c.2-.4.5-.6.9-.8.4-.1.8-.1,1.1,0,2.3,1.1,4.7,1.7,7.3,1.7s1.5.7,1.5,1.5v5.5Z"/>
  </g>
</svg>