<?xml version="1.0" encoding="UTF-8"?>
<svg id="Layer_1" data-name="Layer 1" xmlns="http://www.w3.org/2000/svg" version="1.1" viewBox="0 0 50 50">
  <defs>
    <style>
      .cls-1, .cls-2 {
        fill-rule: evenodd;
        stroke-width: 0px;
      }

      .cls-1, .cls-3 {
        fill: #fff;
      }

      .cls-2 {
        fill: #512bd4;
      }

      .cls-3 {
        font-family: Arial-BoldMT, Arial;
        font-size: 11.3px;
        font-weight: 700;
        isolation: isolate;
      }
    </style>
  </defs>
  <path class="cls-2" d="M25,1l-2.49,1.44L4.22,13v24l20.78,12,20.78-12V13L27.7,2.56l-2.7-1.56Z"/>
  <path class="cls-1" d="M25.15,39.91c-8.22,0-14.87-6.66-14.87-14.87s6.66-14.87,14.87-14.87c5.5,0,10.34,3.06,12.92,7.49l-5.89,3.4c-1.39-2.48-3.99-4.13-7.03-4.13-4.48,0-8.11,3.63-8.11,8.11s3.63,8.11,8.11,8.11c3.02,0,5.66-1.65,7.06-4.11l5.88,3.35c-2.56,4.49-7.39,7.52-12.93,7.52"/>
  <text class="cls-3" transform="translate(34.19 28.48)"><tspan x="0" y="0">#</tspan></text>
</svg>