<?xml version="1.0" encoding="UTF-8"?>
<svg id="Layer_1" data-name="Layer 1" xmlns="http://www.w3.org/2000/svg" version="1.1" xmlns:xlink="http://www.w3.org/1999/xlink" viewBox="0 0 51 50">
  <defs>
    <style>
      .cls-1 {
        fill: none;
      }

      .cls-1, .cls-2 {
        stroke-width: 0px;
      }

      .cls-3 {
        clip-path: url(#clippath);
      }

      .cls-2 {
        fill: #333;
        fill-rule: evenodd;
      }
    </style>
    <clipPath id="clippath">
      <rect class="cls-1" x=".6" width="50" height="50"/>
    </clipPath>
  </defs>
  <g class="cls-3">
    <path class="cls-2" d="M25.6.5C11.8.5.6,11.8.6,25.6s7.2,20.5,17.1,23.8c1.2.2,1.7-.5,1.7-1.2s0-2.2,0-4.3c-7,1.5-8.4-3.4-8.4-3.4-1.1-2.9-2.8-3.7-2.8-3.7-2.3-1.6.2-1.5.2-1.5,2.5.2,3.8,2.6,3.8,2.6,2.2,3.8,5.9,2.7,7.3,2.1.2-1.6.9-2.7,1.6-3.4-5.6-.6-11.4-2.8-11.4-12.4s1-5,2.6-6.7c-.3-.6-1.1-3.2.2-6.6,0,0,2.1-.7,6.9,2.6,2-.6,4.1-.8,6.3-.8,2.1,0,4.3.3,6.3.8,4.8-3.2,6.9-2.6,6.9-2.6,1.4,3.5.5,6,.2,6.6,1.6,1.8,2.6,4,2.6,6.7,0,9.6-5.8,11.8-11.4,12.4.9.8,1.7,2.3,1.7,4.6,0,3.4,0,6.1,0,6.9s.5,1.5,1.7,1.2c9.9-3.3,17.1-12.7,17.1-23.8S39.4.5,25.6.5Z"/>
  </g>
</svg>