<?xml version="1.0" encoding="UTF-8"?>
<svg id="Layer_1" data-name="Layer 1" xmlns="http://www.w3.org/2000/svg" version="1.1" viewBox="0 0 24 25">
  <defs>
    <style>
      .cls-1 {
        fill: #333;
        stroke-width: 0px;
      }
    </style>
  </defs>
  <path class="cls-1" d="M21.8,1H2.2c-.9,0-1.7.7-1.7,1.7v19.7c0,.9.8,1.7,1.7,1.7h19.6c.9,0,1.7-.7,1.7-1.7V2.7c0-.9-.8-1.7-1.7-1.7ZM7.3,20.6h-3.4v-11h3.4v11ZM5.6,8.1c-1.1,0-2-.9-2-2s.9-2,2-2,2,.9,2,2-.9,2-2,2ZM20.1,20.6h-3.4v-5.3c0-1.3,0-2.9-1.8-2.9s-2,1.4-2,2.8v5.4h-3.4v-11h3.3v1.5h0c.5-.9,1.6-1.8,3.2-1.8,3.5,0,4.1,2.3,4.1,5.2v6Z"/>
</svg>